<svg width="235" height="261" viewBox="0 0 235 261" fill="none" xmlns="http://www.w3.org/2000/svg">
<path d="M0 58C0 46.799 0 41.1984 2.17987 36.9202C4.09734 33.1569 7.15695 30.0973 10.9202 28.1799C15.1984 26 20.799 26 32 26H203C214.201 26 219.802 26 224.08 28.1799C227.843 30.0973 230.903 33.1569 232.82 36.9202C235 41.1984 235 46.799 235 58V229C235 240.201 235 245.802 232.82 250.08C230.903 253.843 227.843 256.903 224.08 258.82C219.802 261 214.201 261 203 261H32C20.799 261 15.1984 261 10.9202 258.82C7.15695 256.903 4.09734 253.843 2.17987 250.08C0 245.802 0 240.201 0 229V58Z" fill="url(#paint0_linear)"/>
<circle cx="116.631" cy="142.631" r="63.131" stroke="white" stroke-opacity="0.29" stroke-width="10"/>
<path d="M48.5001 19.7791C69.2404 7.2115 92.7673 0.595203 116.716 0.595215C140.665 0.595227 168.641 7.41798 189.381 19.9856L117.786 143.786L48.5001 19.7791Z" fill="url(#paint1_radial)" fill-opacity="0.22"/>
<g filter="url(#filter0_di)">
<mask id="path-4-inside-1" fill="white">
<path d="M97.2463 107.643C89.2898 112.164 83.0476 119.185 79.488 127.616C75.9284 136.047 75.2502 145.417 77.5587 154.272C79.8671 163.128 85.0332 170.974 92.2557 176.594C99.4781 182.215 108.353 185.294 117.505 185.356C126.656 185.418 135.572 182.459 142.87 176.937C150.167 171.415 155.439 163.639 157.867 154.816C160.295 145.992 159.744 136.614 156.299 128.136C152.854 119.657 146.707 112.553 138.813 107.924L117.786 143.786L97.2463 107.643Z"/>
</mask>
<path d="M97.2463 107.643C89.2898 112.164 83.0476 119.185 79.488 127.616C75.9284 136.047 75.2502 145.417 77.5587 154.272C79.8671 163.128 85.0332 170.974 92.2557 176.594C99.4781 182.215 108.353 185.294 117.505 185.356C126.656 185.418 135.572 182.459 142.87 176.937C150.167 171.415 155.439 163.639 157.867 154.816C160.295 145.992 159.744 136.614 156.299 128.136C152.854 119.657 146.707 112.553 138.813 107.924L117.786 143.786L97.2463 107.643Z" fill="url(#paint2_linear)"/>
<path d="M97.2463 107.643C89.2898 112.164 83.0476 119.185 79.488 127.616C75.9284 136.047 75.2502 145.417 77.5587 154.272C79.8671 163.128 85.0332 170.974 92.2557 176.594C99.4781 182.215 108.353 185.294 117.505 185.356C126.656 185.418 135.572 182.459 142.87 176.937C150.167 171.415 155.439 163.639 157.867 154.816C160.295 145.992 159.744 136.614 156.299 128.136C152.854 119.657 146.707 112.553 138.813 107.924L117.786 143.786L97.2463 107.643Z" stroke="url(#paint3_linear)" stroke-width="16" mask="url(#path-4-inside-1)"/>
</g>
<defs>
<filter id="filter0_di" x="74.2143" y="107.643" width="87.143" height="81.7144" filterUnits="userSpaceOnUse" color-interpolation-filters="sRGB">
<feFlood flood-opacity="0" result="BackgroundImageFix"/>
<feColorMatrix in="SourceAlpha" type="matrix" values="0 0 0 0 0 0 0 0 0 0 0 0 0 0 0 0 0 0 127 0" result="hardAlpha"/>
<feOffset dy="2"/>
<feGaussianBlur stdDeviation="1"/>
<feColorMatrix type="matrix" values="0 0 0 0 0 0 0 0 0 0 0 0 0 0 0 0 0 0 0.35 0"/>
<feBlend mode="normal" in2="BackgroundImageFix" result="effect1_dropShadow"/>
<feBlend mode="normal" in="SourceGraphic" in2="effect1_dropShadow" result="shape"/>
<feColorMatrix in="SourceAlpha" type="matrix" values="0 0 0 0 0 0 0 0 0 0 0 0 0 0 0 0 0 0 127 0" result="hardAlpha"/>
<feOffset dy="5"/>
<feGaussianBlur stdDeviation="2"/>
<feComposite in2="hardAlpha" operator="arithmetic" k2="-1" k3="1"/>
<feColorMatrix type="matrix" values="0 0 0 0 0 0 0 0 0 0 0 0 0 0 0 0 0 0 0.7 0"/>
<feBlend mode="normal" in2="shape" result="effect2_innerShadow"/>
</filter>
<linearGradient id="paint0_linear" x1="145.5" y1="50.25" x2="117.5" y2="199.517" gradientUnits="userSpaceOnUse">
<stop offset="0.121113" stop-color="#11E97C"/>
<stop offset="1" stop-color="#17B153"/>
</linearGradient>
<radialGradient id="paint1_radial" cx="0" cy="0" r="1" gradientUnits="userSpaceOnUse" gradientTransform="translate(116.716 128.713) rotate(-90) scale(231.743 220.805)">
<stop offset="0.109929" stop-color="#0977FB"/>
<stop offset="0.308836" stop-color="#0A74F4" stop-opacity="0.87"/>
<stop offset="0.554546" stop-color="#0D6DE6" stop-opacity="0"/>
</radialGradient>
<linearGradient id="paint2_linear" x1="117.786" y1="117.331" x2="117.786" y2="185.357" gradientUnits="userSpaceOnUse">
<stop stop-color="#1381DA"/>
<stop offset="1" stop-color="#007AD6"/>
</linearGradient>
<linearGradient id="paint3_linear" x1="117.786" y1="102.214" x2="117.786" y2="185.357" gradientUnits="userSpaceOnUse">
<stop stop-color="white"/>
<stop offset="1" stop-color="#CBF3FF"/>
</linearGradient>
</defs>
</svg>
